# xmcd
#
# Track frame offsets: 
#        150
#        12864
#        21911
#        38121
#        45483
#        58739
#        69438
#        82567
#        92333
#        112835
#        130459
#        144832
#        154731
#        166495
#        176121
#        188225
#        201515
#        210514
#        225262
#        238658
#        252069
#        264108
#        278045
#        291148
#
# Disc length: 4116 seconds
#
# Revision: 0
# Processed by: cddbd v1.5.2PL0 Copyright (c) Steve Scherf et al.
# Submitted via: ExactAudioCopy v0.99pb1
#
DISCID=39101218
DTITLE=Various Artist - The George Mitchell Collection, Volumes 1-7 - Disc 4
DYEAR=2008
DGENRE=Blues
TTITLE0=Robert Diggs - Someday Baby
TTITLE1=Robert Diggs - Racehorse Charleston
TTITLE2=Robert Diggs - Done Lost My Health
TTITLE3=Robert Diggs - Drive Your Car
TTITLE4=Cliff Scott - Woke Up This Morning
TTITLE5=Cliff Scott - Long Wavy Hair
TTITLE6=Cliff Scott - Please Come Home
TTITLE7=Cliff Scott - Pole Pattin'
TTITLE8=Jimmy Lee Harris - I Wanna Ramble
TTITLE9=Jimmy Lee Harris - Sitting Here Looking 1000 Miles Away
TTITLE10=R.L. Burnside - Just Like A Bird Without a Feather
TTITLE11=R.L. Burnside - Skinny Woman
TTITLE12=R.L. Burnside - Goin' Down South
TTITLE13=R.L. Burnside - Poor Black Mattie
TTITLE14=Robert Johnson - Hold My Body Down
TTITLE15=Robert Johnson - Trying To Make It Home
TTITLE16=Robert Johnson - Precious Lord
TTITLE17=Robert Johnson - He'll Make A Way
TTITLE18=Robert Longstreet - Sugar Mama
TTITLE19=Robert Longstreet - Black Gal
TTITLE20=Robert Longstreet - Sloppy Drunk
TTITLE21=Robert Longstreet - Decoration Day
TTITLE22=Fred McDowell - Shake 'Em On Down
TTITLE23=Fred McDowell - Mama Says I'm Crazy
EXTD=
EXTT0=
EXTT1=
EXTT2=
EXTT3=
EXTT4=
EXTT5=
EXTT6=
EXTT7=
EXTT8=
EXTT9=
EXTT10=
EXTT11=
EXTT12=
EXTT13=
EXTT14=
EXTT15=
EXTT16=
EXTT17=
EXTT18=
EXTT19=
EXTT20=
EXTT21=
EXTT22=
EXTT23=
PLAYORDER=
